<svg xmlns="http://www.w3.org/2000/svg" width="512" height="512" viewBox="0 0 512 512"><path fill="#305292" d="M512 472c0 22.1-17.9 40-40 40H40c-22.1 0-40-17.9-40-40V40C0 17.9 17.9 0 40 0h432c22.1 0 40 17.9 40 40v432z"/><path fill="#FFF" d="M60.9 214.1h30.7c10.2 0 21.4 3.2 26.1 9.6 4.7 6.4 6.6 14.8 6.6 25.1 0 9.9-2 19.1-6 27.5-4 8.4-12.1 14-17.6 16.7-5.4 2.7-10.6 4.9-15.6 4.9H46.4l14.5-83.8zm6.8 69.4h14c9.8 0 15-4.1 19.9-12.4 4.8-8.3 5.9-16.5 5.9-24.8 0-4.9-1.8-8.7-4.6-11.6-2.8-2.8-7.8-4.2-15-4.2H76.1l-8.4 53zM271.5 214.1l-1.4 16.1h-23.5l-11.3 67.6h-19.1l11.3-67.6H205l1.1-16.1h65.4z"/><path fill="#FFF" d="M332.2 215l-1.1 14.1-42.7 53.5h34.9l.2 15.3h-64l2.8-15.3 43.8-53.6h-34.6l.3-14h60.4z"/><path fill="#FFF" d="M368.4 212.6c11.5 0 20 3.5 25.3 10.5 5.4 6.9 8 15.5 8 25.6 0 3.9-.5 8.3-1.5 13.3s-3 10.2-5.8 15.5c-2.9 5.3-6.6 9.9-11.2 13.6-4.6 3.7-8.9 6.2-13.1 7.4-4.2 1.2-8.7 1.9-13.4 1.8-10.8 0-19.2-3.1-25.2-9.3-6-6.2-9-14.8-9-25.8 0-5.8.8-11.4 2.3-16.9 1.5-5.5 3.8-10.7 6.8-15.5 3-4.9 6.7-8.9 11-12.2 4.4-3.3 8.6-5.4 12.9-6.4 4.1-1.1 8.5-1.6 12.9-1.6zm-7.7 71.8c6.1-.9 11-3.7 14.6-8.6 3.7-4.9 6-10.7 7.1-17.4 1-6.8 1.4-11.5 1-14.3-.8-6.1-3.2-10.4-6.9-13.1-3.8-2.6-8.2-3.6-13.4-2.9-5.8.8-10.5 3.4-14.1 7.9-3.6 4.5-6 10.1-7.2 16.9-1.2 6.8-1.5 12.4-.8 17 .7 4.8 2.8 8.6 6.3 11.4 3.5 2.9 7.9 3.9 13.4 3.1z"/><path fill="#FFF" d="M465.6 214.1l-1.4 16.1h-23.5l-11.3 67.6h-19.1l11.3-67.6h-22.5l1.1-16.1h65.4zM173.4 211.7c11.5 0 20 3.5 25.3 10.5 5.4 6.9 8 15.5 8 25.6 0 3.9-.5 8.3-1.5 13.3s-3 10.2-5.8 15.5c-2.9 5.3-6.6 9.9-11.2 13.6-4.6 3.7-9 6.2-13.1 7.4-4.2 1.2-8.7 1.9-13.4 1.8-10.8 0-19.2-3.1-25.2-9.3-6-6.2-9-14.8-9-25.8 0-5.8.8-11.4 2.3-16.9 1.5-5.5 3.8-10.7 6.8-15.5 3-4.9 6.7-8.9 11-12.2 4.4-3.3 8.6-5.4 12.9-6.4 4.2-1.1 8.5-1.6 12.9-1.6z"/><path fill="#305292" d="M182 264.3h-26V243h36.5L182 264.3zm-23.4-2.5h21.9l8-16.2h-29.9v16.2z"/><path fill="#305292" d="M160.9 244.3h2.6V263h-2.6zM165.9 244.3h2.6V263h-2.6zM171.8 244.3h2.6V263h-2.6zM177.3 244.3h2.6V263h-2.6zM182 244.3h2.6v14.6H182z"/><circle fill="#305292" cx="150" cy="243.7" r="3.6"/><path fill="#305292" d="M150.6 244.7h2.6v24.7h-2.6z"/><path fill="#305292" d="M152.8 266.9h28.9v2.6h-28.9z"/><circle fill="#305292" cx="151.4" cy="276.3" r="4.8"/><circle fill="#305292" cx="176.5" cy="276.3" r="4.8"/></svg>