<svg xmlns="http://www.w3.org/2000/svg" width="512" height="512" viewBox="0 0 512 512"><path fill="#EC1C24" d="M512 472c0 22.1-17.9 40-40 40H40c-22.1 0-40-17.9-40-40V40C0 17.9 17.9 0 40 0h432c22.1 0 40 17.9 40 40v432z"/><path fill="#FFF" d="M286.4 257.1l-16.2 39.1h25.2l6-12 6 12.8h29.2l15.5-39.9h-25.8l-6.3 13.4-5.7-13.4zM356.8 257.4h54.1l-4.2 10.2h-23.4l-1.1 3.2h22.6l-3.4 9.7h-23.9l-.8 2.4h23.4l-3.9 13.1h-54.1zM416.1 256.9h51.7l-5.5 13.9h-11l-10 25.7h-28.9l10.3-26h-11.6zM141.8 217l-20.7 51.9H157l6.3-14.7 11.8 15.3h43.3L203 244l25.4-18.6 12.1 29.6-5 14.5h35.7l3.9-11.1L324 217h-38.9l-15.5 15.2-4.2-15.7h-68.5L172.3 233l6-16zM128.1 238.6l6.1-14.5c-2.8-1.6-5.8-2.7-8.8-3.8-8.1-2.8-16.6-4.4-25.2-5-10.7-.7-24.5-1-34 4.8-2.3 1.4-4.5 3.1-6.4 5.1-3.1 3.4-4.7 8-3.8 12.6 1.7 8.1 11.7 9.1 18.5 10.2 1.6.2 7.1-.2 6.5 2.3-.2 1.2-1.7 1.6-2.7 1.8 0 0-13.6 3.2-27.5-6.3l-6.6 16.4s6.8 8.2 38.3 8.4c11.3.1 23.7-.4 32.9-8.1 5-4.2 7.9-10.1 4.8-16.2-3.5-6.9-12.2-8.8-19.2-9.3-2.6-.2-2.1-1.3-.7-2.6 1.8-1.7 4.7-1.9 7-1.8 7.3.3 14.2 3.4 20.8 6z"/></svg>