<svg xmlns="http://www.w3.org/2000/svg" width="512" height="512" viewBox="0 0 512 512"><path fill="#25247B" d="M512 472c0 22.1-17.9 40-40 40H40c-22.1 0-40-17.9-40-40V40C0 17.9 17.9 0 40 0h432c22.1 0 40 17.9 40 40v432z"/><path fill-rule="evenodd" clip-rule="evenodd" fill="#C4161C" d="M154.6 170.1h62.7v21.7h-15v-5.4h-27.1v19.2h27.1V222h-27.1v18.2h27.1v-5.4h15v21.3h-57.2v-69.6h-5.5c0-4.6.2-10.9 0-16.4zM280.1 194.6v13.6h-16.7v-4.9c-43-1.6-19.7 59.2 11.2 30.9 3.3 4.5 5.2 7.5 9.1 14.1-28.2 21.6-60.5 2.7-60.9-25-.4-26.7 31.2-45.6 57.3-28.7zM451.6 201.4v54.5h-15.2v-41.2c0-17.6-16.3-8.7-16.3.4v40.8h-14.9v-40.7c0-18.6-16.6-9.2-16.6.3V256h-21v-15.6h5.2v-34.9h-5.2v-16.3h21.2v3.7c12.9-7.2 22.2-5.2 28.4 2.4 10.7-10.5 32.9-10.1 34.4 6.1z"/><path fill-rule="evenodd" clip-rule="evenodd" fill="#FFF" d="M198.3 341.9h-19.1V327h4.3v-48.1h-4.2v-14.7h19v2.6c4.6-2.1 14.5-6.1 24.2-1.4 25 12.2 14.9 61.6-24.1 59.5-.1 5.6-.1 11.6-.1 17zm0-32.1c20.8 1.3 26.8-17.1 20.4-27.2-5.4-8.6-20.4-1.8-20.4 5.5 0 7.1-.2 14 0 21.7z"/><path fill-rule="evenodd" clip-rule="evenodd" fill="#FFF" d="M285.5 264.1c-2.6 7.1-2.6 7.1-5.5 13.7-7.5-.5-10.6.3-13.3 1.4-2.2.8-6.8 2.7-6.8 11.4v33.8H241v-13.8h5.1v-32.1H241v-14.2h18.6v3.7c7.5-4.2 15.3-6.4 25.9-3.9zM346.5 301h-42.4c7.5 15 23.3 12.5 30.8 3.7 4.6 6.7 4.4 6.2 8.8 12.9-29.7 21.3-62-2.3-54.5-31.6 8.8-34.6 61.2-31 57.3 15zm-42.4-13.2h28.6c-4.4-14.8-23.8-14.8-28.6 0zM397.4 269.8v11.8h-13.9v-3.9c-2.3-2.5-13-2.5-13.3 1.6-.6 7.5 35.1 11 28.6 35.5-4.1 15.5-33.6 13.5-46 3.2 4.1-6.2 4.1-6.2 7.8-11.6 7 3.1 19.2 9.5 21.9 4.5 5.6-10.2-24.1-11.4-27.3-24.7-5.9-23.7 25-28.6 42.2-16.4z"/><path fill-rule="evenodd" clip-rule="evenodd" fill="#C4161C" d="M325.4 187.6c-19.5 0-35.4 15.8-35.4 35.4 0 19.5 15.8 35.4 35.4 35.4 19.5 0 35.4-15.8 35.4-35.4 0-19.5-15.8-35.4-35.4-35.4zm0 54.5c-10.6 0-19.1-8.6-19.1-19.1 0-10.6 8.6-19.1 19.1-19.1s19.1 8.6 19.1 19.1c.1 10.6-8.5 19.1-19.1 19.1z"/><path fill-rule="evenodd" clip-rule="evenodd" fill="#FFF" d="M60.1 247.4h56.5V267h-13.5v-4.9H78.6v17.3h24.5v14.8H78.6v16.4h24.5v-4.9h13.5v19.7H65.1v-63.3h-5c0-4.1.2-9.7 0-14.7z"/><path fill-rule="evenodd" clip-rule="evenodd" fill="#C4161C" d="M123.2 264.1v14.4h4.9l30.4 46.9h12.4v-14.3h-3.8l-31.7-47"/><path fill-rule="evenodd" clip-rule="evenodd" fill="#FFF" d="M123.2 325.4V311h4.9l30.4-46.9h12.4v14.3h-3.8l-31.7 47"/><path fill-rule="evenodd" clip-rule="evenodd" fill="#FFF" d="M147.2 307.9l8.9-13.1-8.9-13.2-8.6 13.2zM449.8 269.8v11.8h-13.9v-3.9c-2.3-2.5-13-2.5-13.3 1.6-.6 7.5 35.1 11 28.6 35.5-4.1 15.5-33.6 13.5-46 3.2 4.1-6.2 4.1-6.2 7.8-11.6 7 3.1 19.2 9.5 21.9 4.5 5.6-10.2-24.1-11.4-27.3-24.7-5.9-23.7 25-28.6 42.2-16.4z"/></svg>